<?xml version="1.0" standalone="no"?>
<!DOCTYPE svg PUBLIC "-//W3C//DTD SVG 20010904//EN"
 "http://www.w3.org/TR/2001/REC-SVG-20010904/DTD/svg10.dtd">
<svg version="1.0" xmlns="http://www.w3.org/2000/svg"
 width="1280.000000pt" height="1234.000000pt" viewBox="0 0 1280.000000 1234.000000"
 preserveAspectRatio="xMidYMid meet">
<g transform="translate(0.000000,1234.000000) scale(0.100000,-0.100000)"
fill="#000000" stroke="none">
<path d="M3101 10207 c-327 -1040 -710 -2261 -852 -2712 -141 -451 -609 -1940
-1039 -3310 -430 -1369 -872 -2777 -982 -3128 -110 -351 -198 -640 -195 -643
8 -8 540 -174 559 -174 18 0 16 -5 112 300 69 221 1231 3921 1572 5010 217
690 203 650 221 650 27 0 2627 -852 2660 -872 42 -25 2887 -955 2979 -973 39
-8 679 -213 1423 -455 743 -243 1357 -440 1364 -437 7 3 203 589 437 1303 233
715 650 1990 925 2834 349 1068 498 1537 490 1542 -6 4 -627 208 -1381 454
-753 246 -1380 455 -1394 464 -14 10 -81 36 -150 58 -69 22 -726 236 -1461
476 -735 240 -1347 436 -1361 436 -25 0 -2697 868 -2735 888 -28 15 -561 182
-581 182 -14 0 -124 -342 -611 -1893z"/>
</g>
</svg>
