<svg id="logo" xmlns="http://www.w3.org/2000/svg" viewBox="0 0 42 42"><defs><style>.cls-1{fill:#8785a2;}.cls-2{fill:#ffc7c7;}</style></defs><title>favicon</title><path class="cls-1" d="M10.71,31.11a10.6,10.6,0,0,1-2.2-.29h0a10.88,10.88,0,0,1-1.4-.45h0a10.28,10.28,0,0,1-2-1.1,16.64,16.64,0,0,0,9.29-3h0q.59-.41,1.14-.87h0A16.75,16.75,0,0,0,19.25,21a16.08,16.08,0,0,1,1.34,3.52.14.14,0,0,1,0,.07,10.39,10.39,0,0,1-6.27,6h0a9.7,9.7,0,0,1-1.43.38h0a10.16,10.16,0,0,1-1.92.18h-.28Z"/><path class="cls-2" d="M14.36,26.26a6.41,6.41,0,1,1-3.13-11.92,6.49,6.49,0,0,1,3.4,1.08A16.65,16.65,0,0,0,5.51,12,10.35,10.35,0,0,0,1.82,25.61a10.5,10.5,0,0,0,3.25,3.66A16.64,16.64,0,0,0,14.36,26.26Z"/><path class="cls-1" d="M19.25,21a16.9,16.9,0,0,0-3.5-4.59h0a14.48,14.48,0,0,0-1.11-.94h0a16.74,16.74,0,0,0-9.12-3.48,10.36,10.36,0,0,1,5.3-1.55h.42a10.33,10.33,0,0,1,9.56,7.06.14.14,0,0,1,0,.06A16.35,16.35,0,0,1,19.25,21Z"/><path class="cls-2" d="M41.38,21.87a5.08,5.08,0,0,1-.67,2.57,3.82,3.82,0,0,1-2.61,1.71,4.07,4.07,0,0,1-3-.74,3.94,3.94,0,0,1-1.86,5.88,7.92,7.92,0,0,1-3.63.21,1.3,1.3,0,0,1-1.15-.62,16.33,16.33,0,0,1-2-2.92,13.05,13.05,0,0,1-1.3-3.28c-.15-.65-.3-1.3-.44-2a4,4,0,0,0,1.33,2.43,5.31,5.31,0,0,0,2.54,1.18A6.41,6.41,0,0,0,36,18.44a4.48,4.48,0,0,0-3.6-3.51,16.61,16.61,0,0,1,8.41,3.92,1.33,1.33,0,0,1,.34.37,1.54,1.54,0,0,1,.15.64A16.81,16.81,0,0,1,41.38,21.87Z"/><path class="cls-1" d="M38.39,14a9.89,9.89,0,0,1,1.38,1.73h0a10.12,10.12,0,0,1,.7,1.29h0a10.27,10.27,0,0,1,.71,2.2,16.69,16.69,0,0,0-8.79-4.26h0c-.47-.07-.95-.13-1.42-.16h0a17,17,0,0,0-5.76.59,16.35,16.35,0,0,1,1.47-3.46l0-.06a10.39,10.39,0,0,1,8.69,0h0a11.63,11.63,0,0,1,1.29.71h0a9.47,9.47,0,0,1,1.51,1.2h0A1.7,1.7,0,0,1,38.39,14Z"/><path class="cls-1" d="M25.2,15.35a16.67,16.67,0,0,0-.65,5.74h0c0,.49.08,1,.15,1.45h0a16.58,16.58,0,0,0,4.16,8.81A10.19,10.19,0,0,1,24,28.82l0,0-.09-.09-.18-.17a10.37,10.37,0,0,1-2-11.71l.06,0A17.13,17.13,0,0,1,25.2,15.35Z"/></svg>